<svg xmlns="http://www.w3.org/2000/svg" viewBox="0 0 100 100">
  <rect width="100" height="100" rx="14" fill="#33422F"/>
  <path fill="#e7ebdc" stroke="#e7ebdc" stroke-width="2.3" stroke-linejoin="round" stroke-linecap="round" opacity="0.95" d="M63 50 Q78 69 94 57.98 Q103.5 50 94 42.02 Q78 31 63 50 Z M59.19 59.19 Q56.36 83.23 75.47 86.76 Q87.83 87.83 86.76 75.47 Q83.23 56.36 59.19 59.19 Z M50 63 Q31 78 42.02 94 Q50 103.5 57.98 94 Q69 78 50 63 Z M40.81 59.19 Q16.77 56.36 13.24 75.47 Q12.17 87.83 24.53 86.76 Q43.64 83.23 40.81 59.19 Z M37 50 Q22 31 6 42.02 Q-3.5 50 6 57.98 Q22 69 37 50 Z M40.81 40.81 Q43.64 16.77 24.53 13.24 Q12.17 12.17 13.24 24.53 Q16.77 43.64 40.81 40.81 Z M50 37 Q69 22 57.98 6 Q50 -3.5 42.02 6 Q31 22 50 37 Z M59.19 40.81 Q83.23 43.64 86.76 24.53 Q87.83 12.17 75.47 13.24 Q56.36 16.77 59.19 40.81 Z"/>
  <path fill="#e7ebdc" stroke="#e7ebdc" stroke-width="2.3" stroke-linejoin="round" stroke-linecap="round" d="M57.39 53.06 Q60.73 68.52 71.93 64.99 Q80.03 62.44 76.11 54.91 Q70.68 44.5 57.39 53.06 Z M53.06 57.39 Q44.5 70.68 54.91 76.11 Q62.44 80.03 64.99 71.93 Q68.52 60.73 53.06 57.39 Z M46.94 57.39 Q31.48 60.73 35.01 71.93 Q37.56 80.03 45.09 76.11 Q55.5 70.68 46.94 57.39 Z M42.61 53.06 Q29.32 44.5 23.89 54.91 Q19.97 62.44 28.07 64.99 Q39.27 68.52 42.61 53.06 Z M42.61 46.94 Q39.27 31.48 28.07 35.01 Q19.97 37.56 23.89 45.09 Q29.32 55.5 42.61 46.94 Z M46.94 42.61 Q55.5 29.32 45.09 23.89 Q37.56 19.97 35.01 28.07 Q31.48 39.27 46.94 42.61 Z M53.06 42.61 Q68.52 39.27 64.99 28.07 Q62.44 19.97 54.91 23.89 Q44.5 29.32 53.06 42.61 Z M57.39 46.94 Q70.68 55.5 76.11 45.09 Q80.03 37.56 71.93 35.01 Q60.73 31.48 57.39 46.94 Z"/>
  <path fill="none" stroke="#e7ebdc" stroke-width="2.3" stroke-linecap="round" d="M51.5 50 L51.61 50.32 L51.64 50.68 L51.59 51.06 L51.45 51.45 L51.22 51.82 L50.9 52.15 L50.49 52.41 L50.01 52.6 L49.48 52.69 L48.91 52.66 L48.34 52.52 L47.79 52.24 L47.28 51.85 L46.84 51.34 L46.51 50.73 L46.3 50.03 L46.23 49.29 L46.31 48.52 L46.55 47.75 L46.96 47.03 L47.52 46.38 L48.21 45.84 L49.03 45.44 L49.93 45.2 L50.9 45.14 L51.87 45.28 L52.83 45.62 L53.73 46.15 L54.52 46.87 L55.16 47.76 L55.64 48.78 L55.9 49.89 L55.95 51.07 L55.76 52.25 L55.32 53.41 L54.66 54.47 L53.78 55.4 L52.71 56.16 L51.49 56.71 L50.16 57.01 L48.77 57.04 L47.37 56.79 L46.03 56.27 L44.79 55.48 L43.71 54.44 L42.84 53.19 L42.23 51.76 L41.89 50.22 L41.87 48.62 L42.17 47.01 L42.78 45.47 L43.7 44.06 L44.89 42.84 L46.33 41.85 L47.95 41.16 L49.71 40.79 L51.53 40.78 L53.34 41.12 L55.07 41.82 L56.66 42.87 L58.03 44.22 L59.13 45.83 L59.9 47.66 L60.3 49.62 L60.32 51.66 L59.93 53.68 L59.14 55.61 L57.97 57.38 L56.47 58.9"/>
</svg>
